<svg width="2079" height="942" id="g" xmlns="http://www.w3.org/2000/svg" viewBox="-7.5 -8 2079.46875 941.5" role="graphics-document document" aria-roledescription="flowchart-v2"><style>#g{font-family:"trebuchet ms",verdana,arial,sans-serif;font-size:16px;fill:#333;}#g .error-icon{fill:#552222;}#g .error-text{fill:#552222;stroke:#552222;}#g .edge-thickness-normal{stroke-width:2px;}#g .edge-thickness-thick{stroke-width:3.5px;}#g .edge-pattern-solid{stroke-dasharray:0;}#g .edge-pattern-dashed{stroke-dasharray:3;}#g .edge-pattern-dotted{stroke-dasharray:2;}#g .marker{fill:#333333;stroke:#333333;}#g .marker.cross{stroke:#333333;}#g svg{font-family:"trebuchet ms",verdana,arial,sans-serif;font-size:16px;}#g .label{font-family:"trebuchet ms",verdana,arial,sans-serif;color:#333;}#g .cluster-label text{fill:#333;}#g .cluster-label span,#g p{color:#333;}#g .label text,#g span,#g p{fill:#333;color:#333;}#g .node rect,#g .node circle,#g .node ellipse,#g .node polygon,#g .node path{fill:#ECECFF;stroke:#9370DB;stroke-width:1px;}#g .flowchart-label text{text-anchor:middle;}#g .node .katex path{fill:#000;stroke:#000;stroke-width:1px;}#g .node .label{text-align:center;}#g .node.clickable{cursor:pointer;}#g .arrowheadPath{fill:#333333;}#g .edgePath .path{stroke:#333333;stroke-width:2.0px;}#g .flowchart-link{stroke:#333333;fill:none;}#g .edgeLabel{background-color:#e8e8e8;text-align:center;}#g .edgeLabel rect{opacity:0.5;background-color:#e8e8e8;fill:#e8e8e8;}#g .labelBkg{background-color:rgba(232, 232, 232, 0.5);}#g .cluster rect{fill:#ffffde;stroke:#aaaa33;stroke-width:1px;}#g .cluster text{fill:#333;}#g .cluster span,#g p{color:#333;}#g div.mermaidTooltip{position:absolute;text-align:center;max-width:200px;padding:2px;font-family:"trebuchet ms",verdana,arial,sans-serif;font-size:12px;background:hsl(80, 100%, 96.2745098039%);border:1px solid #aaaa33;border-radius:2px;pointer-events:none;z-index:100;}#g .flowchartTitleText{text-anchor:middle;font-size:18px;fill:#333;}#g :root{--mermaid-font-family:"trebuchet ms",verdana,arial,sans-serif;}#g .mandatory rect{fill:rgb(255, 243, 205)!important;stroke:rgb(133, 100, 4)!important;color:rgb(0, 0, 0)!important;}#g .mandatory polygon{fill:rgb(255, 243, 205)!important;stroke:rgb(133, 100, 4)!important;color:rgb(0, 0, 0)!important;}#g .mandatory ellipse{fill:rgb(255, 243, 205)!important;stroke:rgb(133, 100, 4)!important;color:rgb(0, 0, 0)!important;}#g .mandatory circle{fill:rgb(255, 243, 205)!important;stroke:rgb(133, 100, 4)!important;color:rgb(0, 0, 0)!important;}#g .mandatory path{fill:rgb(255, 243, 205)!important;stroke:rgb(133, 100, 4)!important;color:rgb(0, 0, 0)!important;}#g .mandatory tspan{fill:rgb(0, 0, 0)!important;}#g .orchestrator rect{fill:rgb(204, 229, 255)!important;stroke:rgb(0, 64, 133)!important;color:rgb(0, 0, 0)!important;}#g .orchestrator polygon{fill:rgb(204, 229, 255)!important;stroke:rgb(0, 64, 133)!important;color:rgb(0, 0, 0)!important;}#g .orchestrator ellipse{fill:rgb(204, 229, 255)!important;stroke:rgb(0, 64, 133)!important;color:rgb(0, 0, 0)!important;}#g .orchestrator circle{fill:rgb(204, 229, 255)!important;stroke:rgb(0, 64, 133)!important;color:rgb(0, 0, 0)!important;}#g .orchestrator path{fill:rgb(204, 229, 255)!important;stroke:rgb(0, 64, 133)!important;color:rgb(0, 0, 0)!important;}#g .orchestrator tspan{fill:rgb(0, 0, 0)!important;}</style><g><marker id="g_flowchart-pointEnd" class="marker flowchart" viewBox="0 0 10 10" refX="6" refY="5" markerUnits="userSpaceOnUse" markerWidth="12" markerHeight="12" orient="auto"><path d="M 0 0 L 10 5 L 0 10 z" class="arrowMarkerPath" style="stroke-width: 1; stroke-dasharray: 1, 0;"></path></marker><marker id="g_flowchart-pointStart" class="marker flowchart" viewBox="0 0 10 10" refX="4.5" refY="5" markerUnits="userSpaceOnUse" markerWidth="12" markerHeight="12" orient="auto"><path d="M 0 5 L 10 10 L 10 0 z" class="arrowMarkerPath" style="stroke-width: 1; stroke-dasharray: 1, 0;"></path></marker><marker id="g_flowchart-circleEnd" class="marker flowchart" viewBox="0 0 10 10" refX="11" refY="5" markerUnits="userSpaceOnUse" markerWidth="11" markerHeight="11" orient="auto"><circle cx="5" cy="5" r="5" class="arrowMarkerPath" style="stroke-width: 1; stroke-dasharray: 1, 0;"></circle></marker><marker id="g_flowchart-circleStart" class="marker flowchart" viewBox="0 0 10 10" refX="-1" refY="5" markerUnits="userSpaceOnUse" markerWidth="11" markerHeight="11" orient="auto"><circle cx="5" cy="5" r="5" class="arrowMarkerPath" style="stroke-width: 1; stroke-dasharray: 1, 0;"></circle></marker><marker id="g_flowchart-crossEnd" class="marker cross flowchart" viewBox="0 0 11 11" refX="12" refY="5.2" markerUnits="userSpaceOnUse" markerWidth="11" markerHeight="11" orient="auto"><path d="M 1,1 l 9,9 M 10,1 l -9,9" class="arrowMarkerPath" style="stroke-width: 2; stroke-dasharray: 1, 0;"></path></marker><marker id="g_flowchart-crossStart" class="marker cross flowchart" viewBox="0 0 11 11" refX="-1" refY="5.2" markerUnits="userSpaceOnUse" markerWidth="11" markerHeight="11" orient="auto"><path d="M 1,1 l 9,9 M 10,1 l -9,9" class="arrowMarkerPath" style="stroke-width: 2; stroke-dasharray: 1, 0;"></path></marker><g class="root"><g class="clusters"><g class="cluster default flowchart-label" id="SHIP"><rect style="" rx="0" ry="0" x="1414.140625" y="0" width="402.328125" height="413"></rect><g class="cluster-label" transform="translate(1615.3046875, 0)"><text style=""><tspan xml:space="preserve" dy="1em" x="0" class="row">SHIP — orchestrator</tspan></text></g></g><g class="cluster default flowchart-label" id="VERIFY"><rect style="" rx="0" ry="0" x="1252.375" y="449.5" width="811.59375" height="180.79296875"></rect><g class="cluster-label" transform="translate(1658.171875, 449.5)"><text style=""><tspan xml:space="preserve" dy="1em" x="0" class="row">VERIFY</tspan></text></g></g><g class="cluster default flowchart-label" id="BUILD"><rect style="" rx="0" ry="0" x="915.75" y="332.25" width="265.296875" height="593.25"></rect><g class="cluster-label" transform="translate(1048.3984375, 332.25)"><text style=""><tspan xml:space="preserve" dy="1em" x="0" class="row">BUILD — mutating</tspan></text></g></g></g><g class="edgePaths"><path d="M1731.32,515L1745.512,515C1759.703,515,1788.086,515,1812.361,515C1836.635,515,1856.802,515,1876.085,515C1895.369,515,1913.769,515,1922.969,515L1932.169,515" id="L-qa-cf-0" class=" edge-thickness-normal edge-pattern-dotted flowchart-link LS-qa LE-cf" style="fill:none;stroke-width:2px;stroke-dasharray:3;" marker-end="url(#g_flowchart-pointEnd)"></path><path d="M1534.103,172.695L1545.516,152.579C1556.928,132.463,1579.753,92.232,1606.392,72.116C1633.03,52,1663.482,52,1678.708,52L1693.934,52" id="L-ship-cp-0" class=" edge-thickness-normal edge-pattern-dotted flowchart-link LS-ship LE-cp" style="fill:none;stroke-width:2px;stroke-dasharray:3;" marker-end="url(#g_flowchart-pointEnd)"></path><path d="M1549.49,184.914L1558.338,176.762C1567.186,168.609,1584.882,152.305,1602.297,144.152C1619.712,136,1636.847,136,1645.414,136L1653.981,136" id="L-ship-rn-0" class=" edge-thickness-normal edge-pattern-dotted flowchart-link LS-ship LE-rn" style="fill:none;stroke-width:2px;stroke-dasharray:3;" marker-end="url(#g_flowchart-pointEnd)"></path><path d="M1566.313,228L1572.357,228C1578.401,228,1590.49,228,1601.695,228C1612.9,228,1623.222,228,1628.383,228L1633.544,228" id="L-ship-mar-0" class=" edge-thickness-normal edge-pattern-dotted flowchart-link LS-ship LE-mar" style="fill:none;stroke-width:2px;stroke-dasharray:3;" marker-end="url(#g_flowchart-pointEnd)"></path><path d="M1547.655,272.995L1556.809,282.163C1565.963,291.33,1584.27,309.665,1603.175,318.833C1622.08,328,1641.581,328,1651.332,328L1661.083,328" id="L-ship-ci-0" class=" edge-thickness-normal edge-pattern-dotted flowchart-link LS-ship LE-ci" style="fill:none;stroke-width:2px;stroke-dasharray:3;" marker-end="url(#g_flowchart-pointEnd)"></path><path d="M1114.594,581.5L1125.669,581.5C1136.745,581.5,1158.896,581.5,1175.915,581.5C1192.935,581.5,1204.823,581.5,1216.711,581.5C1228.599,581.5,1240.487,581.5,1250.313,579.243C1260.14,576.986,1267.905,572.471,1271.787,570.214L1275.67,567.957" id="L-tdd-testing-0" class=" edge-thickness-normal edge-pattern-dotted flowchart-link LS-tdd LE-testing" style="fill:none;stroke-width:2px;stroke-dasharray:3;" marker-end="url(#g_flowchart-pointEnd)"></path><path d="M1481.564,287.961L1470.327,319.801C1459.09,351.641,1436.615,415.32,1419.334,447.16C1402.052,479,1389.964,479,1375.939,487.087C1361.914,495.174,1345.953,511.347,1337.972,519.434L1329.992,527.521" id="L-ship-testing-0" class=" edge-thickness-normal edge-pattern-dotted flowchart-link LS-ship LE-testing" style="fill:none;stroke-width:2px;stroke-dasharray:3;" marker-end="url(#g_flowchart-pointEnd)"></path><path d="M1539.824,279.642L1550.283,294.202C1560.742,308.762,1581.66,337.881,1608.192,373.571C1634.724,409.261,1666.87,451.521,1682.943,472.651L1699.016,493.782" id="L-ship-qa-0" class=" edge-thickness-normal edge-pattern-dotted flowchart-link LS-ship LE-qa" style="fill:none;stroke-width:2px;stroke-dasharray:3;" marker-end="url(#g_flowchart-pointEnd)"></path><path d="M796.563,687L806.495,687C816.427,687,836.292,687,855.273,687C874.254,687,892.352,687,901.401,687L910.45,687" id="L-PLAN-BUILD-0" class=" edge-thickness-thick edge-pattern-solid flowchart-link LS-PLAN LE-BUILD" style="stroke-width: 3.5px;fill:none;" marker-end="url(#g_flowchart-pointEnd)"></path><path d="M1181.047,489.5L1186.991,489.5C1192.935,489.5,1204.823,489.5,1215.828,489.5C1226.832,489.5,1236.954,489.5,1242.014,489.5L1247.075,489.5" id="L-BUILD-VERIFY-0" class=" edge-thickness-thick edge-pattern-solid flowchart-link LS-BUILD LE-VERIFY" style="stroke-width: 3.5px;fill:none;" marker-end="url(#g_flowchart-pointEnd)"></path><path d="M1423.287,449.5L1452.807,416.927" id="L-VERIFY-SHIP-0" class=" edge-thickness-thick edge-pattern-solid flowchart-link LS-VERIFY LE-SHIP" style="stroke-width: 3.5px;fill:none;" marker-end="url(#g_flowchart-pointEnd)"></path><path d="M1414.141,228L1408.096,228C1402.052,228,1389.964,228,1372.522,228C1355.081,228,1332.286,228,1311.37,228C1290.453,228,1271.414,228,1255.951,228C1240.487,228,1228.599,228,1216.711,228C1204.823,228,1192.935,228,1164.883,228C1136.831,228,1092.615,228,1048.398,228C1004.182,228,959.966,228,927.926,228C895.885,228,876.021,228,803.89,236.15C731.76,244.301,607.363,260.602,545.164,268.752L482.966,276.903" id="L-SHIP-OPS-0" class=" edge-thickness-thick edge-pattern-solid flowchart-link LS-SHIP LE-OPS" style="stroke-width: 3.5px;fill:none;" marker-end="url(#g_flowchart-pointEnd)"></path><path d="M477.711,303.656L540.785,316.088C603.859,328.521,730.008,353.385,802.131,365.818C874.254,378.25,892.352,378.25,901.401,378.25L910.45,378.25" id="L-OPS-BUILD-0" class=" edge-thickness-normal edge-pattern-dotted flowchart-link LS-OPS LE-BUILD" style="fill:none;stroke-width:2px;stroke-dasharray:3;" marker-end="url(#g_flowchart-pointEnd)"></path></g><g class="edgeLabels"><g class="edgeLabel" transform="translate(1876.96875, 515)"><g class="label" transform="translate(-35.5, -9.5)"><rect rx="0" ry="0" width="70.95719146728516" height="17.330120086669922"></rect><text style=""><tspan xml:space="preserve" dy="1em" x="0" class="row">[C] chains</tspan></text></g></g><g class="edgeLabel" transform="translate(1602.578125, 52)"><g class="label" transform="translate(-11.265625, -9.5)"><rect rx="0" ry="0" width="22.525394439697266" height="17.330120086669922"></rect><text style=""><tspan xml:space="preserve" dy="1em" x="0" class="row">[O]</tspan></text></g></g><g class="edgeLabel" transform="translate(1602.578125, 136)"><g class="label" transform="translate(-11.265625, -9.5)"><rect rx="0" ry="0" width="22.525394439697266" height="17.330120086669922"></rect><text style=""><tspan xml:space="preserve" dy="1em" x="0" class="row">[O]</tspan></text></g></g><g class="edgeLabel" transform="translate(1602.578125, 228)"><g class="label" transform="translate(-11.265625, -9.5)"><rect rx="0" ry="0" width="22.525394439697266" height="17.330120086669922"></rect><text style=""><tspan xml:space="preserve" dy="1em" x="0" class="row">[O]</tspan></text></g></g><g class="edgeLabel" transform="translate(1602.578125, 328)"><g class="label" transform="translate(-11.265625, -9.5)"><rect rx="0" ry="0" width="22.525394439697266" height="17.330120086669922"></rect><text style=""><tspan xml:space="preserve" dy="1em" x="0" class="row">[O]</tspan></text></g></g><g class="edgeLabel" transform="translate(1216.7109375, 581.5)"><g class="label" transform="translate(-10.6640625, -9.5)"><rect rx="0" ry="0" width="21.339847564697266" height="17.330120086669922"></rect><text style=""><tspan xml:space="preserve" dy="1em" x="0" class="row">[C]</tspan></text></g></g><g class="edgeLabel" transform="translate(1377.875, 479)"><g class="label" transform="translate(-11.265625, -9.5)"><rect rx="0" ry="0" width="22.525394439697266" height="17.330120086669922"></rect><text style=""><tspan xml:space="preserve" dy="1em" x="0" class="row">[O]</tspan></text></g></g><g class="edgeLabel" transform="translate(1602.578125, 367)"><g class="label" transform="translate(-11.265625, -9.5)"><rect rx="0" ry="0" width="22.525394439697266" height="17.330120086669922"></rect><text style=""><tspan xml:space="preserve" dy="1em" x="0" class="row">[O]</tspan></text></g></g><g class="edgeLabel"><g class="label" transform="translate(0, 0)"><rect rx="0" ry="0" width="0" height="0"></rect><text style=""><tspan xml:space="preserve" dy="1em" x="0" class="row"></tspan></text></g></g><g class="edgeLabel"><g class="label" transform="translate(0, 0)"><rect rx="0" ry="0" width="0" height="0"></rect><text style=""><tspan xml:space="preserve" dy="1em" x="0" class="row"></tspan></text></g></g><g class="edgeLabel"><g class="label" transform="translate(0, 0)"><rect rx="0" ry="0" width="0" height="0"></rect><text style=""><tspan xml:space="preserve" dy="1em" x="0" class="row"></tspan></text></g></g><g class="edgeLabel"><g class="label" transform="translate(0, 0)"><rect rx="0" ry="0" width="0" height="0"></rect><text style=""><tspan xml:space="preserve" dy="1em" x="0" class="row"></tspan></text></g></g><g class="edgeLabel" transform="translate(696.16799, 346.71532)"><g class="label" transform="translate(-34.59375, -9.5)"><rect rx="0" ry="0" width="69.15691375732422" height="16.861114501953125"></rect><text style=""><tspan xml:space="preserve" dy="1em" x="0" class="row">new issue</tspan></text></g></g></g><g class="nodes"><g class="root" transform="translate(311.3515625, 238)"><g class="clusters"><g class="cluster default flowchart-label" id="OPS"><rect style="" rx="0" ry="0" x="8" y="8" width="158.859375" height="84"></rect><g class="cluster-label" transform="translate(87.4296875, 8)"><text style=""><tspan xml:space="preserve" dy="1em" x="0" class="row">OPS</tspan></text></g></g></g><g class="edgePaths"></g><g class="edgeLabels"></g><g class="nodes"><g class="node default default flowchart-label" id="flowchart-bt-30" data-node="true" data-id="bt" transform="translate(87.4296875, 50)"><rect class="basic label-container" style="" rx="0" ry="0" x="-44.4296875" y="-17" width="88.859375" height="34"></rect><g class="label" style="" transform="translate(0, -9.5)"><rect></rect><text style=""><tspan xml:space="preserve" dy="1em" x="0" class="row">bug-triage</tspan></text></g></g></g></g><g class="node default orchestrator flowchart-label" id="flowchart-ship-17" data-node="true" data-id="ship" transform="translate(1502.7265625, 228)"><circle style="" rx="0" ry="0" r="63.5859375" width="127.171875" height="50"></circle><g class="label" style="" transform="translate(0, -17.5)"><rect></rect><text style=""><tspan xml:space="preserve" dy="1em" x="0" class="row">/ship</tspan><tspan xml:space="preserve" dy="1em" x="0" class="row">composes chain</tspan></text></g></g><g class="node default default flowchart-label" id="flowchart-cp-18" data-node="true" data-id="cp" transform="translate(1715.15625, 52)"><rect class="basic label-container" style="" rx="0" ry="0" x="-15.921875" y="-17" width="31.84375" height="34"></rect><g class="label" style="" transform="translate(0, -9.5)"><rect></rect><text style=""><tspan xml:space="preserve" dy="1em" x="0" class="row">cp</tspan></text></g></g><g class="node default default flowchart-label" id="flowchart-rn-19" data-node="true" data-id="rn" transform="translate(1715.15625, 136)"><rect class="basic label-container" style="" rx="0" ry="0" x="-55.875" y="-17" width="111.75" height="34"></rect><g class="label" style="" transform="translate(0, -9.5)"><rect></rect><text style=""><tspan xml:space="preserve" dy="1em" x="0" class="row">release-notes</tspan></text></g></g><g class="node default default flowchart-label" id="flowchart-mar-20" data-node="true" data-id="mar" transform="translate(1715.15625, 228)"><rect class="basic label-container" style="" rx="0" ry="0" x="-76.3125" y="-25" width="152.625" height="50"></rect><g class="label" style="" transform="translate(0, -17.5)"><rect></rect><text style=""><tspan xml:space="preserve" dy="1em" x="0" class="row">multi-agent-review</tspan><tspan xml:space="preserve" dy="1em" x="0" class="row">fresh sub-agent</tspan></text></g></g><g class="node default default flowchart-label" id="flowchart-ci-21" data-node="true" data-id="ci" transform="translate(1715.15625, 328)"><rect class="basic label-container" style="" rx="0" ry="0" x="-48.7734375" y="-25" width="97.546875" height="50"></rect><g class="label" style="" transform="translate(0, -17.5)"><rect></rect><text style=""><tspan xml:space="preserve" dy="1em" x="0" class="row">ci</tspan><tspan xml:space="preserve" dy="1em" x="0" class="row">background</tspan></text></g></g><g class="node default default flowchart-label" id="flowchart-testing-12" data-node="true" data-id="testing" transform="translate(1309.4921875, 548.29296875)"><rect class="basic label-container" style="" rx="0" ry="0" x="-32.1171875" y="-17" width="64.234375" height="34"></rect><g class="label" style="" transform="translate(0, -9.5)"><rect></rect><text style=""><tspan xml:space="preserve" dy="1em" x="0" class="row">testing</tspan></text></g></g><g class="node default default flowchart-label" id="flowchart-qa-13" data-node="true" data-id="qa" transform="translate(1715.15625, 515)"><rect class="basic label-container" style="" rx="0" ry="0" x="-16.1640625" y="-17" width="32.328125" height="34"></rect><g class="label" style="" transform="translate(0, -9.5)"><rect></rect><text style=""><tspan xml:space="preserve" dy="1em" x="0" class="row">qa</tspan></text></g></g><g class="node default default flowchart-label" id="flowchart-cf-14" data-node="true" data-id="cf" transform="translate(1988.21875, 515)"><rect class="basic label-container" style="" rx="0" ry="0" x="-50.75" y="-17" width="101.5" height="34"></rect><g class="label" style="" transform="translate(0, -9.5)"><rect></rect><text style=""><tspan xml:space="preserve" dy="1em" x="0" class="row">chrome-fast</tspan></text></g></g><g class="node default default flowchart-label" id="flowchart-nb-7" data-node="true" data-id="nb" transform="translate(1048.3984375, 489.5)"><rect class="basic label-container" style="" rx="0" ry="0" x="-49.6015625" y="-17" width="99.203125" height="34"></rect><g class="label" style="" transform="translate(0, -9.5)"><rect></rect><text style=""><tspan xml:space="preserve" dy="1em" x="0" class="row">new-branch</tspan></text></g></g><g class="node default mandatory flowchart-label" id="flowchart-tdd-8" data-node="true" data-id="tdd" transform="translate(1048.3984375, 581.5)"><rect class="basic label-container" style="" rx="0" ry="0" x="-66.1953125" y="-25" width="132.390625" height="50"></rect><g class="label" style="" transform="translate(0, -17.5)"><rect></rect><text style=""><tspan xml:space="preserve" dy="1em" x="0" class="row">tdd  ⚠[R]</tspan><tspan xml:space="preserve" dy="1em" x="0" class="row">behavior change</tspan></text></g></g><g class="node default mandatory flowchart-label" id="flowchart-ui-9" data-node="true" data-id="ui" transform="translate(1048.3984375, 681.5)"><rect class="basic label-container" style="" rx="0" ry="0" x="-58.6640625" y="-25" width="117.328125" height="50"></rect><g class="label" style="" transform="translate(0, -17.5)"><rect></rect><text style=""><tspan xml:space="preserve" dy="1em" x="0" class="row">ui  ⚠[R]</tspan><tspan xml:space="preserve" dy="1em" x="0" class="row">dashboard file</tspan></text></g></g><g class="node default mandatory flowchart-label" id="flowchart-mts-10" data-node="true" data-id="mts" transform="translate(1048.3984375, 781.5)"><rect class="basic label-container" style="" rx="0" ry="0" x="-107.6484375" y="-25" width="215.296875" height="50"></rect><g class="label" style="" transform="translate(0, -17.5)"><rect></rect><text style=""><tspan xml:space="preserve" dy="1em" x="0" class="row">multi-tenant-security  ⚠[R]</tspan><tspan xml:space="preserve" dy="1em" x="0" class="row">shared creds</tspan></text></g></g><g class="node default default flowchart-label" id="flowchart-dd-11" data-node="true" data-id="dd" transform="translate(1048.3984375, 873.5)"><rect class="basic label-container" style="" rx="0" ry="0" x="-47.3984375" y="-17" width="94.796875" height="34"></rect><g class="label" style="" transform="translate(0, -9.5)"><rect></rect><text style=""><tspan xml:space="preserve" dy="1em" x="0" class="row">docker-dev</tspan></text></g></g><g class="root" transform="translate(-7.5, 569.5)"><g class="clusters"><g class="cluster default flowchart-label" id="PLAN"><rect style="" rx="0" ry="0" x="8" y="8" width="796.5625" height="219"></rect><g class="cluster-label" transform="translate(406.28125, 8)"><text style=""><tspan xml:space="preserve" dy="1em" x="0" class="row">PLAN — read-only analysis</tspan></text></g></g></g><g class="edgePaths"><path d="M291.367,83L291.367,88.75C291.367,94.5,291.367,106,291.367,116.617C291.367,127.233,291.367,136.967,291.367,141.833L291.367,146.7" id="L-aca-st-0" class=" edge-thickness-normal edge-pattern-solid flowchart-link LS-aca LE-st" style="fill:none;" marker-end="url(#g_flowchart-pointEnd)"></path></g><g class="edgeLabels"><g class="edgeLabel" transform="translate(291.3671875, 117.5)"><g class="label" transform="translate(-30.5859375, -9.5)"><rect rx="0" ry="0" width="61.13334655761719" height="16.861114501953125"></rect><text style=""><tspan xml:space="preserve" dy="1em" x="0" class="row">hand-off</tspan></text></g></g></g><g class="nodes"><g class="node default default flowchart-label" id="flowchart-pmr-0" data-node="true" data-id="pmr" transform="translate(114.9765625, 177)"><rect class="basic label-container" style="" rx="0" ry="0" x="-71.9765625" y="-25" width="143.953125" height="50"></rect><g class="label" style="" transform="translate(0, -17.5)"><rect></rect><text style=""><tspan xml:space="preserve" dy="1em" x="0" class="row">plan-mega-review</tspan><tspan xml:space="preserve" dy="1em" x="0" class="row">one-shot critique</tspan></text></g></g><g class="node default default flowchart-label" id="flowchart-aca-3" data-node="true" data-id="aca" transform="translate(291.3671875, 58)"><rect class="basic label-container" style="" rx="0" ry="0" x="-89.7421875" y="-25" width="179.484375" height="50"></rect><g class="label" style="" transform="translate(0, -17.5)"><rect></rect><text style=""><tspan xml:space="preserve" dy="1em" x="0" class="row">access-control-analysis</tspan><tspan xml:space="preserve" dy="1em" x="0" class="row">surface map</tspan></text></g></g><g class="node default default flowchart-label" id="flowchart-st-4" data-node="true" data-id="st" transform="translate(291.3671875, 177)"><rect class="basic label-container" style="" rx="0" ry="0" x="-54.4140625" y="-25" width="108.828125" height="50"></rect><g class="label" style="" transform="translate(0, -17.5)"><rect></rect><text style=""><tspan xml:space="preserve" dy="1em" x="0" class="row">stride</tspan><tspan xml:space="preserve" dy="1em" x="0" class="row">threat model</tspan></text></g></g><g class="node default default flowchart-label" id="flowchart-wp-1" data-node="true" data-id="wp" transform="translate(480.203125, 177)"><rect class="basic label-container" style="" rx="0" ry="0" x="-84.421875" y="-25" width="168.84375" height="50"></rect><g class="label" style="" transform="translate(0, -17.5)"><rect></rect><text style=""><tspan xml:space="preserve" dy="1em" x="0" class="row">walk-plan</tspan><tspan xml:space="preserve" dy="1em" x="0" class="row">collaborative Q and A</tspan></text></g></g><g class="node default default flowchart-label" id="flowchart-gm-2" data-node="true" data-id="gm" transform="translate(692.09375, 177)"><rect class="basic label-container" style="" rx="0" ry="0" x="-77.46875" y="-25" width="154.9375" height="50"></rect><g class="label" style="" transform="translate(0, -17.5)"><rect></rect><text style=""><tspan xml:space="preserve" dy="1em" x="0" class="row">grill-me</tspan><tspan xml:space="preserve" dy="1em" x="0" class="row">adversarial defense</tspan></text></g></g></g></g></g></g></g></svg>
