<svg width="1676" height="586" id="g" xmlns="http://www.w3.org/2000/svg" viewBox="-8 -8 1676.15625 585.75" role="graphics-document document" aria-roledescription="flowchart-v2"><style>#g{font-family:"trebuchet ms",verdana,arial,sans-serif;font-size:16px;fill:#333;}#g .error-icon{fill:#552222;}#g .error-text{fill:#552222;stroke:#552222;}#g .edge-thickness-normal{stroke-width:2px;}#g .edge-thickness-thick{stroke-width:3.5px;}#g .edge-pattern-solid{stroke-dasharray:0;}#g .edge-pattern-dashed{stroke-dasharray:3;}#g .edge-pattern-dotted{stroke-dasharray:2;}#g .marker{fill:#333333;stroke:#333333;}#g .marker.cross{stroke:#333333;}#g svg{font-family:"trebuchet ms",verdana,arial,sans-serif;font-size:16px;}#g .label{font-family:"trebuchet ms",verdana,arial,sans-serif;color:#333;}#g .cluster-label text{fill:#333;}#g .cluster-label span,#g p{color:#333;}#g .label text,#g span,#g p{fill:#333;color:#333;}#g .node rect,#g .node circle,#g .node ellipse,#g .node polygon,#g .node path{fill:#ECECFF;stroke:#9370DB;stroke-width:1px;}#g .flowchart-label text{text-anchor:middle;}#g .node .katex path{fill:#000;stroke:#000;stroke-width:1px;}#g .node .label{text-align:center;}#g .node.clickable{cursor:pointer;}#g .arrowheadPath{fill:#333333;}#g .edgePath .path{stroke:#333333;stroke-width:2.0px;}#g .flowchart-link{stroke:#333333;fill:none;}#g .edgeLabel{background-color:#e8e8e8;text-align:center;}#g .edgeLabel rect{opacity:0.5;background-color:#e8e8e8;fill:#e8e8e8;}#g .labelBkg{background-color:rgba(232, 232, 232, 0.5);}#g .cluster rect{fill:#ffffde;stroke:#aaaa33;stroke-width:1px;}#g .cluster text{fill:#333;}#g .cluster span,#g p{color:#333;}#g div.mermaidTooltip{position:absolute;text-align:center;max-width:200px;padding:2px;font-family:"trebuchet ms",verdana,arial,sans-serif;font-size:12px;background:hsl(80, 100%, 96.2745098039%);border:1px solid #aaaa33;border-radius:2px;pointer-events:none;z-index:100;}#g .flowchartTitleText{text-anchor:middle;font-size:18px;fill:#333;}#g :root{--mermaid-font-family:"trebuchet ms",verdana,arial,sans-serif;}#g .orchestrator rect{fill:rgb(204, 229, 255)!important;stroke:rgb(0, 64, 133)!important;color:rgb(0, 0, 0)!important;}#g .orchestrator polygon{fill:rgb(204, 229, 255)!important;stroke:rgb(0, 64, 133)!important;color:rgb(0, 0, 0)!important;}#g .orchestrator ellipse{fill:rgb(204, 229, 255)!important;stroke:rgb(0, 64, 133)!important;color:rgb(0, 0, 0)!important;}#g .orchestrator circle{fill:rgb(204, 229, 255)!important;stroke:rgb(0, 64, 133)!important;color:rgb(0, 0, 0)!important;}#g .orchestrator path{fill:rgb(204, 229, 255)!important;stroke:rgb(0, 64, 133)!important;color:rgb(0, 0, 0)!important;}#g .orchestrator tspan{fill:rgb(0, 0, 0)!important;}#g .endpoint rect{fill:rgb(212, 237, 218)!important;stroke:rgb(21, 87, 36)!important;color:rgb(0, 0, 0)!important;}#g .endpoint polygon{fill:rgb(212, 237, 218)!important;stroke:rgb(21, 87, 36)!important;color:rgb(0, 0, 0)!important;}#g .endpoint ellipse{fill:rgb(212, 237, 218)!important;stroke:rgb(21, 87, 36)!important;color:rgb(0, 0, 0)!important;}#g .endpoint circle{fill:rgb(212, 237, 218)!important;stroke:rgb(21, 87, 36)!important;color:rgb(0, 0, 0)!important;}#g .endpoint path{fill:rgb(212, 237, 218)!important;stroke:rgb(21, 87, 36)!important;color:rgb(0, 0, 0)!important;}#g .endpoint tspan{fill:rgb(0, 0, 0)!important;}</style><g><marker id="g_flowchart-pointEnd" class="marker flowchart" viewBox="0 0 10 10" refX="6" refY="5" markerUnits="userSpaceOnUse" markerWidth="12" markerHeight="12" orient="auto"><path d="M 0 0 L 10 5 L 0 10 z" class="arrowMarkerPath" style="stroke-width: 1; stroke-dasharray: 1, 0;"></path></marker><marker id="g_flowchart-pointStart" class="marker flowchart" viewBox="0 0 10 10" refX="4.5" refY="5" markerUnits="userSpaceOnUse" markerWidth="12" markerHeight="12" orient="auto"><path d="M 0 5 L 10 10 L 10 0 z" class="arrowMarkerPath" style="stroke-width: 1; stroke-dasharray: 1, 0;"></path></marker><marker id="g_flowchart-circleEnd" class="marker flowchart" viewBox="0 0 10 10" refX="11" refY="5" markerUnits="userSpaceOnUse" markerWidth="11" markerHeight="11" orient="auto"><circle cx="5" cy="5" r="5" class="arrowMarkerPath" style="stroke-width: 1; stroke-dasharray: 1, 0;"></circle></marker><marker id="g_flowchart-circleStart" class="marker flowchart" viewBox="0 0 10 10" refX="-1" refY="5" markerUnits="userSpaceOnUse" markerWidth="11" markerHeight="11" orient="auto"><circle cx="5" cy="5" r="5" class="arrowMarkerPath" style="stroke-width: 1; stroke-dasharray: 1, 0;"></circle></marker><marker id="g_flowchart-crossEnd" class="marker cross flowchart" viewBox="0 0 11 11" refX="12" refY="5.2" markerUnits="userSpaceOnUse" markerWidth="11" markerHeight="11" orient="auto"><path d="M 1,1 l 9,9 M 10,1 l -9,9" class="arrowMarkerPath" style="stroke-width: 2; stroke-dasharray: 1, 0;"></path></marker><marker id="g_flowchart-crossStart" class="marker cross flowchart" viewBox="0 0 11 11" refX="-1" refY="5.2" markerUnits="userSpaceOnUse" markerWidth="11" markerHeight="11" orient="auto"><path d="M 1,1 l 9,9 M 10,1 l -9,9" class="arrowMarkerPath" style="stroke-width: 2; stroke-dasharray: 1, 0;"></path></marker><g class="root"><g class="clusters"><g class="cluster default flowchart-label" id="F"><rect style="" rx="0" ry="0" x="322.3125" y="0" width="830.640625" height="134.75"></rect><g class="cluster-label" transform="translate(737.6328125, 0)"><text style=""><tspan xml:space="preserve" dy="1em" x="0" class="row">F · Ops triage</tspan></text></g></g><g class="cluster default flowchart-label" id="E"><rect style="" rx="0" ry="0" x="0" y="162.75" width="797.09375" height="104"></rect><g class="cluster-label" transform="translate(398.546875, 162.75)"><text style=""><tspan xml:space="preserve" dy="1em" x="0" class="row">E · Front-loaded design</tspan></text></g></g><g class="cluster default flowchart-label" id="C"><rect style="" rx="0" ry="0" x="322.3125" y="418.75" width="1023.046875" height="120"></rect><g class="cluster-label" transform="translate(833.8359375, 418.75)"><text style=""><tspan xml:space="preserve" dy="1em" x="0" class="row">C · Multi-tenant integration</tspan></text></g></g><g class="cluster default flowchart-label" id="B"><rect style="" rx="0" ry="0" x="915.078125" y="294.75" width="430.28125" height="104"></rect><g class="cluster-label" transform="translate(1130.21875, 294.75)"><text style=""><tspan xml:space="preserve" dy="1em" x="0" class="row">B · Dashboard edit</tspan></text></g></g><g class="cluster default flowchart-label" id="A"><rect style="" rx="0" ry="0" x="915.078125" y="154.75" width="430.28125" height="120"></rect><g class="cluster-label" transform="translate(1130.21875, 154.75)"><text style=""><tspan xml:space="preserve" dy="1em" x="0" class="row">A · Standard feature</tspan></text></g></g></g><g class="edgePaths"><path d="M1087.813,214.75L1098.669,214.75C1109.526,214.75,1131.24,214.75,1146.263,214.75C1161.286,214.75,1169.62,214.75,1177.07,214.75C1184.52,214.75,1191.086,214.75,1194.37,214.75L1197.653,214.75" id="L-a1-a2-0" class=" edge-thickness-normal edge-pattern-solid flowchart-link LS-a1 LE-a2" style="fill:none;" marker-end="url(#g_flowchart-pointEnd)"></path><path d="M1112.57,346.75L1119.301,346.75C1126.031,346.75,1139.492,346.75,1150.389,346.75C1161.286,346.75,1169.62,346.75,1178.845,346.75C1188.069,346.75,1198.185,346.75,1203.243,346.75L1208.302,346.75" id="L-b1-b2-0" class=" edge-thickness-normal edge-pattern-solid flowchart-link LS-b1 LE-b2" style="fill:none;" marker-end="url(#g_flowchart-pointEnd)"></path><path d="M504.203,478.75L516.586,478.75C528.969,478.75,553.734,478.75,569.401,478.75C585.067,478.75,591.633,478.75,594.917,478.75L598.2,478.75" id="L-c1-c2-0" class=" edge-thickness-normal edge-pattern-solid flowchart-link LS-c1 LE-c2" style="fill:none;" marker-end="url(#g_flowchart-pointEnd)"></path><path d="M772.094,478.75L776.26,478.75C780.427,478.75,788.76,478.75,802.759,478.75C816.758,478.75,836.422,478.75,856.086,478.75C875.75,478.75,895.414,478.75,908.529,478.75C921.645,478.75,928.211,478.75,931.495,478.75L934.778,478.75" id="L-c2-c3-0" class=" edge-thickness-normal edge-pattern-solid flowchart-link LS-c2 LE-c3" style="fill:none;" marker-end="url(#g_flowchart-pointEnd)"></path><path d="M1127.953,478.75L1132.12,478.75C1136.286,478.75,1144.62,478.75,1152.953,478.75C1161.286,478.75,1169.62,478.75,1181.467,478.75C1193.314,478.75,1208.675,478.75,1216.355,478.75L1224.036,478.75" id="L-c3-c4-0" class=" edge-thickness-normal edge-pattern-solid flowchart-link LS-c3 LE-c4" style="fill:none;" marker-end="url(#g_flowchart-pointEnd)"></path><path d="M224.828,214.75L236.909,214.75C248.99,214.75,273.151,214.75,289.398,214.75C305.646,214.75,313.979,214.75,330.848,214.75C347.718,214.75,373.123,214.75,385.826,214.75L398.528,214.75" id="L-e1-e2-0" class=" edge-thickness-normal edge-pattern-solid flowchart-link LS-e1 LE-e2" style="fill:none;" marker-end="url(#g_flowchart-pointEnd)"></path><path d="M496.984,214.75L510.57,214.75C524.156,214.75,551.328,214.75,575.619,214.75C599.91,214.75,621.321,214.75,632.026,214.75L642.731,214.75" id="L-e2-e3-0" class=" edge-thickness-normal edge-pattern-solid flowchart-link LS-e2 LE-e3" style="fill:none;" marker-end="url(#g_flowchart-pointEnd)"></path><path d="M553.5,74.75L557.667,74.75C561.833,74.75,570.167,74.75,582.395,74.75C594.624,74.75,610.748,74.75,618.81,74.75L626.872,74.75" id="L-f1-f2-0" class=" edge-thickness-normal edge-pattern-solid flowchart-link LS-f1 LE-f2" style="fill:none;" marker-end="url(#g_flowchart-pointEnd)"></path><path d="M743.422,67.243L752.367,66.036C761.313,64.829,779.203,62.414,797.98,61.207C816.758,60,836.422,60,856.086,60C875.75,60,895.414,60,912.912,60C930.41,60,945.743,60,953.409,60L961.075,60" id="L-f2-f3-0" class=" edge-thickness-normal edge-pattern-solid flowchart-link LS-f2 LE-f3" style="fill:none;" marker-end="url(#g_flowchart-pointEnd)"></path><path d="M1320.359,214.75L1324.526,214.75C1328.693,214.75,1337.026,214.75,1345.359,214.75C1353.693,214.75,1362.026,214.75,1374.21,228.513C1386.395,242.276,1402.43,269.801,1410.448,283.564L1418.466,297.327" id="L-a2-SHIP-0" class=" edge-thickness-normal edge-pattern-solid flowchart-link LS-a2 LE-SHIP" style="fill:none;" marker-end="url(#g_flowchart-pointEnd)"></path><path d="M1309.711,346.75L1315.652,346.75C1321.594,346.75,1333.477,346.75,1343.585,346.75C1353.693,346.75,1362.026,346.75,1369.476,346.75C1376.926,346.75,1383.493,346.75,1386.776,346.75L1390.059,346.75" id="L-b2-SHIP-0" class=" edge-thickness-normal edge-pattern-solid flowchart-link LS-b2 LE-SHIP" style="fill:none;" marker-end="url(#g_flowchart-pointEnd)"></path><path d="M1293.977,478.75L1302.54,478.75C1311.104,478.75,1328.232,478.75,1340.962,478.75C1353.693,478.75,1362.026,478.75,1374.21,464.987C1386.395,451.224,1402.43,423.699,1410.448,409.936L1418.466,396.173" id="L-c4-SHIP-0" class=" edge-thickness-normal edge-pattern-solid flowchart-link LS-c4 LE-SHIP" style="fill:none;" marker-end="url(#g_flowchart-pointEnd)"></path><path d="M727.563,214.75L739.151,214.75C750.74,214.75,773.917,214.75,795.337,214.75C816.758,214.75,836.422,214.75,856.086,214.75C875.75,214.75,895.414,214.75,915.22,214.75C935.025,214.75,954.972,214.75,964.945,214.75L974.919,214.75" id="L-e3-a1-0" class=" edge-thickness-normal edge-pattern-dotted flowchart-link LS-e3 LE-a1" style="fill:none;stroke-width:2px;stroke-dasharray:3;" marker-end="url(#g_flowchart-pointEnd)"></path><path d="M743.422,82.511L752.367,83.759C761.313,85.008,779.203,87.504,797.98,88.752C816.758,90,836.422,90,856.086,90C875.75,90,895.414,90,921.758,107.319C948.102,124.638,981.126,159.276,997.638,176.595L1014.15,193.914" id="L-f2-a1-0" class=" edge-thickness-normal edge-pattern-dotted flowchart-link LS-f2 LE-a1" style="fill:none;stroke-width:2px;stroke-dasharray:3;" marker-end="url(#g_flowchart-pointEnd)"></path><path d="M1499.156,346.75L1503.323,346.75C1507.49,346.75,1515.823,346.75,1523.273,346.75C1530.723,346.75,1537.29,346.75,1540.573,346.75L1543.856,346.75" id="L-SHIP-PR-0" class=" edge-thickness-normal edge-pattern-solid flowchart-link LS-SHIP LE-PR" style="fill:none;" marker-end="url(#g_flowchart-pointEnd)"></path></g><g class="edgeLabels"><g class="edgeLabel"><g class="label" transform="translate(0, 0)"><rect rx="0" ry="0" width="0" height="0"></rect><text style=""><tspan xml:space="preserve" dy="1em" x="0" class="row"></tspan></text></g></g><g class="edgeLabel"><g class="label" transform="translate(0, 0)"><rect rx="0" ry="0" width="0" height="0"></rect><text style=""><tspan xml:space="preserve" dy="1em" x="0" class="row"></tspan></text></g></g><g class="edgeLabel"><g class="label" transform="translate(0, 0)"><rect rx="0" ry="0" width="0" height="0"></rect><text style=""><tspan xml:space="preserve" dy="1em" x="0" class="row"></tspan></text></g></g><g class="edgeLabel"><g class="label" transform="translate(0, 0)"><rect rx="0" ry="0" width="0" height="0"></rect><text style=""><tspan xml:space="preserve" dy="1em" x="0" class="row"></tspan></text></g></g><g class="edgeLabel"><g class="label" transform="translate(0, 0)"><rect rx="0" ry="0" width="0" height="0"></rect><text style=""><tspan xml:space="preserve" dy="1em" x="0" class="row"></tspan></text></g></g><g class="edgeLabel"><g class="label" transform="translate(0, 0)"><rect rx="0" ry="0" width="0" height="0"></rect><text style=""><tspan xml:space="preserve" dy="1em" x="0" class="row"></tspan></text></g></g><g class="edgeLabel"><g class="label" transform="translate(0, 0)"><rect rx="0" ry="0" width="0" height="0"></rect><text style=""><tspan xml:space="preserve" dy="1em" x="0" class="row"></tspan></text></g></g><g class="edgeLabel"><g class="label" transform="translate(0, 0)"><rect rx="0" ry="0" width="0" height="0"></rect><text style=""><tspan xml:space="preserve" dy="1em" x="0" class="row"></tspan></text></g></g><g class="edgeLabel"><g class="label" transform="translate(0, 0)"><rect rx="0" ry="0" width="0" height="0"></rect><text style=""><tspan xml:space="preserve" dy="1em" x="0" class="row"></tspan></text></g></g><g class="edgeLabel"><g class="label" transform="translate(0, 0)"><rect rx="0" ry="0" width="0" height="0"></rect><text style=""><tspan xml:space="preserve" dy="1em" x="0" class="row"></tspan></text></g></g><g class="edgeLabel"><g class="label" transform="translate(0, 0)"><rect rx="0" ry="0" width="0" height="0"></rect><text style=""><tspan xml:space="preserve" dy="1em" x="0" class="row"></tspan></text></g></g><g class="edgeLabel"><g class="label" transform="translate(0, 0)"><rect rx="0" ry="0" width="0" height="0"></rect><text style=""><tspan xml:space="preserve" dy="1em" x="0" class="row"></tspan></text></g></g><g class="edgeLabel" transform="translate(856.0859375, 214.75)"><g class="label" transform="translate(-23.8046875, -9.5)"><rect rx="0" ry="0" width="47.603248596191406" height="20.3862247467041"></rect><text style=""><tspan xml:space="preserve" dy="1em" x="0" class="row">joins A</tspan></text></g></g><g class="edgeLabel" transform="translate(856.0859375, 90)"><g class="label" transform="translate(-33.9921875, -9.5)"><rect rx="0" ry="0" width="67.9540786743164" height="20.3862247467041"></rect><text style=""><tspan xml:space="preserve" dy="1em" x="0" class="row">triggers A</tspan></text></g></g><g class="edgeLabel"><g class="label" transform="translate(0, 0)"><rect rx="0" ry="0" width="0" height="0"></rect><text style=""><tspan xml:space="preserve" dy="1em" x="0" class="row"></tspan></text></g></g></g><g class="nodes"><g class="node default default flowchart-label" id="flowchart-f1-28" data-node="true" data-id="f1" transform="translate(450.40625, 74.75)"><rect class="basic label-container" style="" rx="0" ry="0" x="-103.09375" y="-25" width="206.1875" height="50"></rect><g class="label" style="" transform="translate(0, -17.5)"><rect></rect><text style=""><tspan xml:space="preserve" dy="1em" x="0" class="row">/bug-triage</tspan><tspan xml:space="preserve" dy="1em" x="0" class="row">scans CloudWatch + Sentry</tspan></text></g></g><g class="node default default flowchart-label" id="flowchart-f2-29" data-node="true" data-id="f2" transform="translate(687.796875, 74.75)"><rect class="basic label-container" style="" rx="0" ry="0" x="-55.625" y="-25" width="111.25" height="50"></rect><g class="label" style="" transform="translate(0, -17.5)"><rect></rect><text style=""><tspan xml:space="preserve" dy="1em" x="0" class="row">prompt user</tspan><tspan xml:space="preserve" dy="1em" x="0" class="row">which to file?</tspan></text></g></g><g class="node default default flowchart-label" id="flowchart-f3-30" data-node="true" data-id="f3" transform="translate(1034.015625, 60)"><rect class="basic label-container" style="" rx="0" ry="0" x="-67.640625" y="-25" width="135.28125" height="50"></rect><g class="label" style="" transform="translate(0, -17.5)"><rect></rect><text style=""><tspan xml:space="preserve" dy="1em" x="0" class="row">ticket(s) created</tspan><tspan xml:space="preserve" dy="1em" x="0" class="row">in Linear</tspan></text></g></g><g class="node default default flowchart-label" id="flowchart-e1-22" data-node="true" data-id="e1" transform="translate(148.65625, 214.75)"><rect class="basic label-container" style="" rx="0" ry="0" x="-76.171875" y="-17" width="152.34375" height="34"></rect><g class="label" style="" transform="translate(0, -9.5)"><rect></rect><text style=""><tspan xml:space="preserve" dy="1em" x="0" class="row">/plan-mega-review</tspan></text></g></g><g class="node default default flowchart-label" id="flowchart-e2-23" data-node="true" data-id="e2" transform="translate(450.40625, 214.75)"><rect class="basic label-container" style="" rx="0" ry="0" x="-46.578125" y="-17" width="93.15625" height="34"></rect><g class="label" style="" transform="translate(0, -9.5)"><rect></rect><text style=""><tspan xml:space="preserve" dy="1em" x="0" class="row">/walk-plan</tspan></text></g></g><g class="node default default flowchart-label" id="flowchart-e3-24" data-node="true" data-id="e3" transform="translate(687.796875, 214.75)"><rect class="basic label-container" style="" rx="0" ry="0" x="-39.765625" y="-17" width="79.53125" height="34"></rect><g class="label" style="" transform="translate(0, -9.5)"><rect></rect><text style=""><tspan xml:space="preserve" dy="1em" x="0" class="row">/grill-me</tspan></text></g></g><g class="root" transform="translate(17.5, 293.75)"><g class="clusters"><g class="cluster default flowchart-label" id="D"><rect style="" rx="0" ry="0" x="8" y="8" width="247.3125" height="268"></rect><g class="cluster-label" transform="translate(131.65625, 8)"><text style=""><tspan xml:space="preserve" dy="1em" x="0" class="row">D · Browser QA standalone</tspan></text></g></g></g><g class="edgePaths"><path d="M131.656,67L131.656,71.167C131.656,75.333,131.656,83.667,131.656,91.117C131.656,98.567,131.656,105.133,131.656,108.417L131.656,111.7" id="L-d1-d2-0" class=" edge-thickness-normal edge-pattern-solid flowchart-link LS-d1 LE-d2" style="fill:none;" marker-end="url(#g_flowchart-pointEnd)"></path><path d="M131.656,167L131.656,171.167C131.656,175.333,131.656,183.667,131.656,191.117C131.656,198.567,131.656,205.133,131.656,208.417L131.656,211.7" id="L-d2-d3-0" class=" edge-thickness-normal edge-pattern-solid flowchart-link LS-d2 LE-d3" style="fill:none;" marker-end="url(#g_flowchart-pointEnd)"></path></g><g class="edgeLabels"><g class="edgeLabel"><g class="label" transform="translate(0, 0)"><rect rx="0" ry="0" width="0" height="0"></rect><text style=""><tspan xml:space="preserve" dy="1em" x="0" class="row"></tspan></text></g></g><g class="edgeLabel"><g class="label" transform="translate(0, 0)"><rect rx="0" ry="0" width="0" height="0"></rect><text style=""><tspan xml:space="preserve" dy="1em" x="0" class="row"></tspan></text></g></g></g><g class="nodes"><g class="node default default flowchart-label" id="flowchart-d1-16" data-node="true" data-id="d1" transform="translate(131.65625, 50)"><rect class="basic label-container" style="" rx="0" ry="0" x="-70.8984375" y="-17" width="141.796875" height="34"></rect><g class="label" style="" transform="translate(0, -9.5)"><rect></rect><text style=""><tspan xml:space="preserve" dy="1em" x="0" class="row">/docker-dev start</tspan></text></g></g><g class="node default default flowchart-label" id="flowchart-d2-17" data-node="true" data-id="d2" transform="translate(131.65625, 142)"><rect class="basic label-container" style="" rx="0" ry="0" x="-88.65625" y="-25" width="177.3125" height="50"></rect><g class="label" style="" transform="translate(0, -17.5)"><rect></rect><text style=""><tspan xml:space="preserve" dy="1em" x="0" class="row">/qa</tspan><tspan xml:space="preserve" dy="1em" x="0" class="row">chains chrome-fast [C]</tspan></text></g></g><g class="node default default flowchart-label" id="flowchart-d3-18" data-node="true" data-id="d3" transform="translate(131.65625, 234)"><rect class="basic label-container" style="" rx="0" ry="0" x="-30.0078125" y="-17" width="60.015625" height="34"></rect><g class="label" style="" transform="translate(0, -9.5)"><rect></rect><text style=""><tspan xml:space="preserve" dy="1em" x="0" class="row">report</tspan></text></g></g></g></g><g class="node default default flowchart-label" id="flowchart-c1-8" data-node="true" data-id="c1" transform="translate(450.40625, 478.75)"><rect class="basic label-container" style="" rx="0" ry="0" x="-53.796875" y="-17" width="107.59375" height="34"></rect><g class="label" style="" transform="translate(0, -9.5)"><rect></rect><text style=""><tspan xml:space="preserve" dy="1em" x="0" class="row">/new-branch</tspan></text></g></g><g class="node default default flowchart-label" id="flowchart-c2-9" data-node="true" data-id="c2" transform="translate(687.796875, 478.75)"><rect class="basic label-container" style="" rx="0" ry="0" x="-84.296875" y="-25" width="168.59375" height="50"></rect><g class="label" style="" transform="translate(0, -17.5)"><rect></rect><text style=""><tspan xml:space="preserve" dy="1em" x="0" class="row">multi-tenant-security</tspan><tspan xml:space="preserve" dy="1em" x="0" class="row">routed [R]</tspan></text></g></g><g class="node default default flowchart-label" id="flowchart-c3-10" data-node="true" data-id="c3" transform="translate(1034.015625, 478.75)"><rect class="basic label-container" style="" rx="0" ry="0" x="-93.9375" y="-17" width="187.875" height="34"></rect><g class="label" style="" transform="translate(0, -9.5)"><rect></rect><text style=""><tspan xml:space="preserve" dy="1em" x="0" class="row">/access-control-analysis</tspan></text></g></g><g class="node default default flowchart-label" id="flowchart-c4-11" data-node="true" data-id="c4" transform="translate(1261.65625, 478.75)"><rect class="basic label-container" style="" rx="0" ry="0" x="-32.3203125" y="-17" width="64.640625" height="34"></rect><g class="label" style="" transform="translate(0, -9.5)"><rect></rect><text style=""><tspan xml:space="preserve" dy="1em" x="0" class="row">/stride</tspan></text></g></g><g class="node default default flowchart-label" id="flowchart-b1-4" data-node="true" data-id="b1" transform="translate(1034.015625, 346.75)"><rect class="basic label-container" style="" rx="0" ry="0" x="-78.5546875" y="-17" width="157.109375" height="34"></rect><g class="label" style="" transform="translate(0, -9.5)"><rect></rect><text style=""><tspan xml:space="preserve" dy="1em" x="0" class="row">open dashboard file</tspan></text></g></g><g class="node default default flowchart-label" id="flowchart-b2-5" data-node="true" data-id="b2" transform="translate(1261.65625, 346.75)"><rect class="basic label-container" style="" rx="0" ry="0" x="-48.0546875" y="-17" width="96.109375" height="34"></rect><g class="label" style="" transform="translate(0, -9.5)"><rect></rect><text style=""><tspan xml:space="preserve" dy="1em" x="0" class="row">ui loads [R]</tspan></text></g></g><g class="node default default flowchart-label" id="flowchart-a1-0" data-node="true" data-id="a1" transform="translate(1034.015625, 214.75)"><rect class="basic label-container" style="" rx="0" ry="0" x="-53.796875" y="-17" width="107.59375" height="34"></rect><g class="label" style="" transform="translate(0, -9.5)"><rect></rect><text style=""><tspan xml:space="preserve" dy="1em" x="0" class="row">/new-branch</tspan></text></g></g><g class="node default default flowchart-label" id="flowchart-a2-1" data-node="true" data-id="a2" transform="translate(1261.65625, 214.75)"><rect class="basic label-container" style="" rx="0" ry="0" x="-58.703125" y="-25" width="117.40625" height="50"></rect><g class="label" style="" transform="translate(0, -17.5)"><rect></rect><text style=""><tspan xml:space="preserve" dy="1em" x="0" class="row">write code</tspan><tspan xml:space="preserve" dy="1em" x="0" class="row">tdd routed [R]</tspan></text></g></g><g class="node default orchestrator flowchart-label" id="flowchart-SHIP-34" data-node="true" data-id="SHIP" transform="translate(1447.2578125, 346.75)"><circle style="" rx="0" ry="0" r="51.8984375" width="103.796875" height="50"></circle><g class="label" style="" transform="translate(0, -17.5)"><rect></rect><text style=""><tspan xml:space="preserve" dy="1em" x="0" class="row">/ship</tspan><tspan xml:space="preserve" dy="1em" x="0" class="row">orchestrator</tspan></text></g></g><g class="node default endpoint flowchart-label" id="flowchart-PR-35" data-node="true" data-id="PR" transform="translate(1604.65625, 346.75)"><rect style="" rx="25" ry="25" x="-55.5" y="-25" width="111" height="50"></rect><g class="label" style="" transform="translate(0, -17.5)"><rect></rect><text style=""><tspan xml:space="preserve" dy="1em" x="0" class="row">PR open</tspan><tspan xml:space="preserve" dy="1em" x="0" class="row">CI watching</tspan></text></g></g></g></g></g></svg>
